<svg xmlns="http://www.w3.org/2000/svg" viewBox="0 0 101 126.25" fillRule="evenodd" clipRule="evenodd" strokeLinejoin="round" strokeMiterlimit="2">
<rect x="0.86" y="0.86" width="100" height="100" fill="none" />
<path d="M67.935,26.009l0.033,-0.019c7.294,-4.211 16.634,-1.708 20.845,5.585c4.211,7.294 1.708,16.634 -5.585,20.846c-0.35,0.201 -0.704,0.388 -1.063,0.559c-14.261,7.958 -44.664,19.692 -54.801,23.529c-0.273,0.104 -0.581,-0.006 -0.727,-0.258c-0.146,-0.253 -0.088,-0.574 0.138,-0.759c2.149,-1.757 5.412,-4.407 9.314,-7.518c0.231,-0.184 0.292,-0.511 0.142,-0.767c-0.149,-0.256 -0.464,-0.362 -0.739,-0.251c-8.895,3.615 -16.932,6.698 -21.264,8.338c-0.273,0.103 -0.58,-0.007 -0.726,-0.26c-0.146,-0.252 -0.087,-0.573 0.138,-0.758c3.587,-2.932 10.275,-8.35 17.853,-14.247c0.234,-0.182 0.299,-0.508 0.152,-0.765c-0.146,-0.258 -0.46,-0.368 -0.735,-0.26c-4.645,1.823 -8.572,3.324 -11.168,4.307c-0.273,0.103 -0.58,-0.008 -0.726,-0.261c-0.145,-0.253 -0.086,-0.574 0.14,-0.758c8.596,-7.027 34.998,-28.327 48.779,-36.283Z" fill="#FF0000" />
</svg>


<svg height="800px" width="800px" version="1.1" id="Layer_1" xmlns="http://www.w3.org/2000/svg"
     viewBox="0 0 511.999 511.999">
    <path style={{ fill: '#E9573F' }} d="M405.952,201.859C400.28,182.859,511.999,0,511.999,0S247.687,156.359,234.64,150
c-21.25-10.359,5.188-58.875,5.188-58.875l-188,158.484l0,0c-2.766,2.375-5.469,4.875-8.094,7.5
c-58.312,58.312-58.312,152.844,0,211.156s152.844,58.312,211.156,0c6.328-6.328,16.938-20.188,16.938-20.188l176.171-234.749
C447.999,213.328,411.171,219.359,405.952,201.859z"/>
    <circle style={{ fill: '#FFCE54' }} cx="149.219" cy="362.56" r="106.66" />
</svg>
